# xmcd CD database file
#
# Track frame offsets:
#	150
#	49489
#	75324
#	93913
#	119111
#	147296
#	183526
#	227491
#	254666
#	279031
#	300524
#	321186
#
# Disc length: 4473 seconds
#
# Revision: 2
# Processed by: cddbd v1.5.1PL0 Copyright (c) Steve Scherf et al.
# Submitted via: CDex 1.51
#
DISCID=a211770c
DTITLE=Gerry Mulligan - The Complete Verve Gerry Mulligan Concert Band Sessions Disc 3
DYEAR=1960
DGENRE=Jazz
TTITLE0=Blueport
TTITLE1=Body and soul
TTITLE2=Black nightgown
TTITLE3=Come rain or come shine
TTITLE4=Lady Chatterley's mother
TTITLE5=Let my people be
TTITLE6=All about Rosie
TTITLE7=Weep
TTITLE8=I know, don't know how
TTITLE9=Chuggin'
TTITLE10=Summer's over
TTITLE11=Israel
EXTD=YEAR: 1960
EXTT0=
EXTT1=
EXTT2=
EXTT3=
EXTT4=
EXTT5=
EXTT6=
EXTT7=
EXTT8=
EXTT9=
EXTT10=
EXTT11=
PLAYORDER=
